<?xml version="1.0" encoding="iso-8859-1"?>
<!-- Uploaded to: SVG Repo, www.svgrepo.com, Generator: SVG Repo Mixer Tools -->
<svg height="800px" width="800px" version="1.1" id="Layer_1" xmlns="http://www.w3.org/2000/svg" xmlns:xlink="http://www.w3.org/1999/xlink" 
	 viewBox="0 0 512 512" xml:space="preserve">
<g transform="translate(1 1)">
	<polygon style="fill:#CCCCCC;" points="272.655,497.759 502.172,497.759 502.172,144.655 272.655,144.655 	"/>
	<polygon style="fill:#FFFFFF;" points="7.828,497.759 237.345,497.759 237.345,144.655 7.828,144.655 	"/>
	<polygon style="fill:#E2E3E5;" points="34.31,497.759 475.69,497.759 475.69,144.655 34.31,144.655 	"/>
	<polygon style="fill:#E0E0E0;" points="272.655,144.655 502.172,144.655 502.172,47.552 272.655,47.552 	"/>
	<polygon style="fill:#FFFFFF;" points="7.828,144.655 237.345,144.655 237.345,47.552 7.828,47.552 	"/>
	<polygon style="fill:#F0F0F0;" points="34.31,144.655 475.69,144.655 475.69,47.552 34.31,47.552 	"/>
	<g>
		<path style="fill:#B6B6B6;" d="M166.724,56.379h-26.483c-5.297,0-8.828-3.531-8.828-8.828s3.531-8.828,8.828-8.828h26.483
			c5.297,0,8.828,3.531,8.828,8.828S172.021,56.379,166.724,56.379z"/>
		<path style="fill:#B6B6B6;" d="M502.172,153.483H7.828c-5.297,0-8.828-3.531-8.828-8.828V47.552c0-5.297,3.531-8.828,8.828-8.828
			h132.414c5.297,0,8.828,3.531,8.828,8.828s-3.531,8.828-8.828,8.828H16.655v79.448h476.69V56.379H369.759
			c-5.297,0-8.828-3.531-8.828-8.828s3.531-8.828,8.828-8.828h132.414c5.297,0,8.828,3.531,8.828,8.828v97.103
			C511,149.952,507.469,153.483,502.172,153.483z"/>
		<path style="fill:#B6B6B6;" d="M502.172,506.586H7.828c-5.297,0-8.828-3.531-8.828-8.828V47.552c0-5.297,3.531-8.828,8.828-8.828
			h132.414c5.297,0,8.828,3.531,8.828,8.828s-3.531,8.828-8.828,8.828H16.655v432.552h476.69V56.379H369.759
			c-5.297,0-8.828-3.531-8.828-8.828s3.531-8.828,8.828-8.828h132.414c5.297,0,8.828,3.531,8.828,8.828v450.207
			C511,503.055,507.469,506.586,502.172,506.586z"/>
		<path style="fill:#B6B6B6;" d="M175.552,91.69c-5.297,0-8.828-3.531-8.828-8.828s3.531-8.828,8.828-8.828
			c15.007,0,26.483-11.476,26.483-26.483s-11.476-26.483-26.483-26.483c-15.007,0-26.483,11.476-26.483,26.483
			c0,5.297-3.531,8.828-8.828,8.828s-8.828-3.531-8.828-8.828c0-24.717,19.421-44.138,44.138-44.138s44.138,19.421,44.138,44.138
			S200.269,91.69,175.552,91.69z"/>
		<path style="fill:#B6B6B6;" d="M228.517,91.69c-5.297,0-8.828-3.531-8.828-8.828s3.531-8.828,8.828-8.828
			c15.007,0,26.483-11.476,26.483-26.483s-11.476-26.483-26.483-26.483c-5.297,0-8.828-3.531-8.828-8.828s3.531-8.828,8.828-8.828
			c24.717,0,44.138,19.421,44.138,44.138S253.234,91.69,228.517,91.69z"/>
		<path style="fill:#B6B6B6;" d="M281.483,91.69c-5.297,0-8.828-3.531-8.828-8.828s3.531-8.828,8.828-8.828
			c15.007,0,26.483-11.476,26.483-26.483s-11.476-26.483-26.483-26.483c-5.297,0-8.828-3.531-8.828-8.828s3.531-8.828,8.828-8.828
			c24.717,0,44.138,19.421,44.138,44.138S306.2,91.69,281.483,91.69z"/>
		<path style="fill:#B6B6B6;" d="M334.448,91.69c-5.297,0-8.828-3.531-8.828-8.828s3.531-8.828,8.828-8.828
			c15.007,0,26.483-11.476,26.483-26.483s-11.476-26.483-26.483-26.483c-5.297,0-8.828-3.531-8.828-8.828s3.531-8.828,8.828-8.828
			c24.717,0,44.138,19.421,44.138,44.138S359.165,91.69,334.448,91.69z"/>
		<path style="fill:#B6B6B6;" d="M202.034,215.276c0,5.297-3.531,8.828-8.828,8.828s-8.828-3.531-8.828-8.828
			s3.531-8.828,8.828-8.828S202.034,209.979,202.034,215.276"/>
		<path style="fill:#B6B6B6;" d="M263.828,215.276c0,5.297-3.531,8.828-8.828,8.828c-5.297,0-8.828-3.531-8.828-8.828
			s3.531-8.828,8.828-8.828C260.297,206.448,263.828,209.979,263.828,215.276"/>
		<path style="fill:#B6B6B6;" d="M325.621,215.276c0,5.297-3.531,8.828-8.828,8.828s-8.828-3.531-8.828-8.828
			s3.531-8.828,8.828-8.828S325.621,209.979,325.621,215.276"/>
		<path style="fill:#B6B6B6;" d="M387.414,215.276c0,5.297-3.531,8.828-8.828,8.828s-8.828-3.531-8.828-8.828
			s3.531-8.828,8.828-8.828S387.414,209.979,387.414,215.276"/>
		<path style="fill:#B6B6B6;" d="M449.207,215.276c0,5.297-3.531,8.828-8.828,8.828s-8.828-3.531-8.828-8.828
			s3.531-8.828,8.828-8.828S449.207,209.979,449.207,215.276"/>
		<path style="fill:#B6B6B6;" d="M78.448,285.897c0,5.297-3.531,8.828-8.828,8.828s-8.828-3.531-8.828-8.828
			c0-5.297,3.531-8.828,8.828-8.828S78.448,280.6,78.448,285.897"/>
		<path style="fill:#B6B6B6;" d="M140.241,285.897c0,5.297-3.531,8.828-8.828,8.828c-5.297,0-8.828-3.531-8.828-8.828
			c0-5.297,3.531-8.828,8.828-8.828C136.71,277.069,140.241,280.6,140.241,285.897"/>
		<path style="fill:#B6B6B6;" d="M202.034,285.897c0,5.297-3.531,8.828-8.828,8.828s-8.828-3.531-8.828-8.828
			c0-5.297,3.531-8.828,8.828-8.828S202.034,280.6,202.034,285.897"/>
		<path style="fill:#B6B6B6;" d="M263.828,285.897c0,5.297-3.531,8.828-8.828,8.828c-5.297,0-8.828-3.531-8.828-8.828
			c0-5.297,3.531-8.828,8.828-8.828C260.297,277.069,263.828,280.6,263.828,285.897"/>
		<path style="fill:#B6B6B6;" d="M325.621,285.897c0,5.297-3.531,8.828-8.828,8.828s-8.828-3.531-8.828-8.828
			c0-5.297,3.531-8.828,8.828-8.828S325.621,280.6,325.621,285.897"/>
		<path style="fill:#B6B6B6;" d="M387.414,285.897c0,5.297-3.531,8.828-8.828,8.828s-8.828-3.531-8.828-8.828
			c0-5.297,3.531-8.828,8.828-8.828S387.414,280.6,387.414,285.897"/>
		<path style="fill:#B6B6B6;" d="M449.207,285.897c0,5.297-3.531,8.828-8.828,8.828s-8.828-3.531-8.828-8.828
			c0-5.297,3.531-8.828,8.828-8.828S449.207,280.6,449.207,285.897"/>
		<path style="fill:#B6B6B6;" d="M78.448,347.69c0,5.297-3.531,8.828-8.828,8.828s-8.828-3.531-8.828-8.828s3.531-8.828,8.828-8.828
			S78.448,342.393,78.448,347.69"/>
		<path style="fill:#B6B6B6;" d="M140.241,347.69c0,5.297-3.531,8.828-8.828,8.828c-5.297,0-8.828-3.531-8.828-8.828
			s3.531-8.828,8.828-8.828C136.71,338.862,140.241,342.393,140.241,347.69"/>
		<path style="fill:#B6B6B6;" d="M202.034,347.69c0,5.297-3.531,8.828-8.828,8.828s-8.828-3.531-8.828-8.828
			s3.531-8.828,8.828-8.828S202.034,342.393,202.034,347.69"/>
		<path style="fill:#B6B6B6;" d="M263.828,347.69c0,5.297-3.531,8.828-8.828,8.828c-5.297,0-8.828-3.531-8.828-8.828
			s3.531-8.828,8.828-8.828C260.297,338.862,263.828,342.393,263.828,347.69"/>
		<path style="fill:#B6B6B6;" d="M325.621,347.69c0,5.297-3.531,8.828-8.828,8.828s-8.828-3.531-8.828-8.828
			s3.531-8.828,8.828-8.828S325.621,342.393,325.621,347.69"/>
		<path style="fill:#B6B6B6;" d="M387.414,347.69c0,5.297-3.531,8.828-8.828,8.828s-8.828-3.531-8.828-8.828
			s3.531-8.828,8.828-8.828S387.414,342.393,387.414,347.69"/>
		<path style="fill:#B6B6B6;" d="M449.207,347.69c0,5.297-3.531,8.828-8.828,8.828s-8.828-3.531-8.828-8.828
			s3.531-8.828,8.828-8.828S449.207,342.393,449.207,347.69"/>
		<path style="fill:#B6B6B6;" d="M78.448,418.31c0,5.297-3.531,8.828-8.828,8.828s-8.828-3.531-8.828-8.828s3.531-8.828,8.828-8.828
			S78.448,413.014,78.448,418.31"/>
		<path style="fill:#B6B6B6;" d="M140.241,418.31c0,5.297-3.531,8.828-8.828,8.828c-5.297,0-8.828-3.531-8.828-8.828
			s3.531-8.828,8.828-8.828C136.71,409.483,140.241,413.014,140.241,418.31"/>
		<path style="fill:#B6B6B6;" d="M202.034,418.31c0,5.297-3.531,8.828-8.828,8.828s-8.828-3.531-8.828-8.828
			s3.531-8.828,8.828-8.828S202.034,413.014,202.034,418.31"/>
		<path style="fill:#B6B6B6;" d="M263.828,418.31c0,5.297-3.531,8.828-8.828,8.828c-5.297,0-8.828-3.531-8.828-8.828
			s3.531-8.828,8.828-8.828C260.297,409.483,263.828,413.014,263.828,418.31"/>
		<path style="fill:#B6B6B6;" d="M325.621,418.31c0,5.297-3.531,8.828-8.828,8.828s-8.828-3.531-8.828-8.828
			s3.531-8.828,8.828-8.828S325.621,413.014,325.621,418.31"/>
	</g>
</g>
</svg>